<?xml version="1.0" encoding="UTF-8"?>
<svg id="Layer_2" xmlns="http://www.w3.org/2000/svg" viewBox="0 0 469.08 150">
  <defs>
    <style>
      .cls-1, .cls-2 {
        fill: #f59799;
      }

      .cls-3 {
        letter-spacing: 0em;
      }

      .cls-4 {
        letter-spacing: -.04em;
      }

      .cls-2 {
        font-family: PlantagenetCherokee, 'Plantagenet Cherokee';
        font-size: 89.09px;
      }
    </style>
  </defs>
  <g id="Layer_1-2" data-name="Layer_1">
    <g>
      <g>
        <path class="cls-1" d="M24.14,64.71c.59.52,1.68.19,2.26-.14.43-.25,1.49-1.08,1.03-1.69-3.1-4.16-5.56-8.76-6.5-13.87-.93-5.05-.61-10.29,1.04-15.17.81-2.39,1.88-4.57,3.33-6.63.36-.52.74-1.02,1.14-1.51.41-.5.55-.66,1.09-1.22.43-.45.87-.88,1.33-1.3.21-.2.43-.39.65-.58.13-.11.25-.21.38-.32.03-.03.16-.13.23-.19.99-.76,2.02-1.46,3.1-2.1.11-.06.44-.25.49-.28.24-.13.47-.25.71-.37.6-.3,1.2-.58,1.81-.84.27-.11.54-.23.81-.33.12-.05.45-.17.52-.2.57-.2,1.14-.39,1.72-.56.6-.18,1.21-.34,1.82-.48.29-.07.57-.13.86-.19.05-.01.1-.02.13-.03.18-.03.35-.06.53-.09,1.44-.24,2.91-.38,4.37-.42.13,0,.25,0,.38,0,.06,0,.09,0,.11,0,.04,0,.08,0,.12,0,.38,0,.75.02,1.13.03.71.03,1.42.09,2.12.17,1.71.2,3.34.5,4.97.88-.28.06-.57.12-.85.19-3.76.84-7.39,2.08-10.7,4.03-.6.35-1.4,1.27-1.04,2.02.36.76,1.57.73,2.25.52,3.11-.97,6.18-2.06,9.35-2.81,3.06-.72,6.19-.96,9.46-1.35,1-.12,2.05-.59,2.69-1.37.4-.5.86-1.43.16-1.93-2.61-1.87-5.08-3.97-7.61-5.94-1.22-.95-2.45-1.9-3.68-2.85-1.3-1-2.64-2.2-4.17-2.84-.83-.35-3.39.66-2.72,1.81.76,1.33,2.2,2.4,3.33,3.42.97.88,1.95,1.76,2.93,2.63-2.98-.57-6.1-.6-9.11-.31-5.98.58-11.82,2.64-16.79,5.95-4.91,3.28-8.82,7.8-11.17,13.16-2.24,5.11-2.94,10.91-2.19,16.41.84,6.16,3.39,12.46,8.17,16.69Z"/>
        <path class="cls-1" d="M112.96,0c-11.9,0-21.55,9.67-21.55,21.6s9.65,21.6,21.55,21.6,21.55-9.67,21.55-21.6S124.86,0,112.96,0ZM113.64,40.08c-9.7,0-17.57-7.88-17.57-17.61s7.87-17.61,17.57-17.61,17.57,7.88,17.57,17.61-7.87,17.61-17.57,17.61Z"/>
        <path class="cls-1" d="M149.97,72.87c-.99-8.24-4.71-15.95-10.62-21.88-6.97-6.99-16.43-10.91-26.29-10.91s-19.32,3.93-26.29,10.91c-5.91,5.93-9.63,13.64-10.62,21.88-.3,2.45,1.73,4.46,4.2,4.46h1.39c-.02-.48-.04-.97-.04-1.46,0-16.76,13.47-30.35,30.1-30.35s30.1,13.59,30.1,30.35c0,.49-.01.98-.04,1.46h3.92c2.47,0,4.49-2.01,4.2-4.46Z"/>
        <path class="cls-1" d="M36.85,72.76c-11.9,0-21.55,9.67-21.55,21.6s9.65,21.6,21.55,21.6,21.55-9.67,21.55-21.6-9.65-21.6-21.55-21.6ZM37.53,112.84c-9.7,0-17.57-7.88-17.57-17.61s7.87-17.61,17.57-17.61,17.57,7.88,17.57,17.61-7.87,17.61-17.57,17.61Z"/>
        <path class="cls-1" d="M73.86,145.54c-.99-8.21-4.71-15.9-10.62-21.81-6.97-6.97-16.43-10.88-26.29-10.88s-19.32,3.91-26.29,10.88c-5.91,5.91-9.63,13.6-10.62,21.81-.3,2.45,1.73,4.46,4.2,4.46h1.39c-.02-.48-.04-.97-.04-1.46,0-16.71,13.47-30.25,30.1-30.25s30.1,13.54,30.1,30.25c0,.49-.01.98-.04,1.46h3.92c2.47,0,4.49-2.01,4.2-4.46Z"/>
        <path class="cls-1" d="M125.86,84.32c-.59-.52-1.68-.19-2.26.14-.43.25-1.49,1.08-1.03,1.7,3.1,4.17,5.56,8.79,6.5,13.92.93,5.07.61,10.32-1.04,15.22-.81,2.4-1.88,4.58-3.33,6.66-.36.52-.74,1.02-1.14,1.51-.41.5-.55.66-1.09,1.22-.43.45-.87.88-1.33,1.3-.21.2-.43.39-.65.58-.13.11-.25.22-.38.32-.03.03-.16.13-.23.19-.99.76-2.02,1.47-3.1,2.11-.11.06-.44.25-.49.28-.24.13-.47.25-.71.37-.6.3-1.2.58-1.81.84-.27.12-.54.23-.81.33-.12.05-.45.17-.52.2-.57.2-1.14.39-1.72.56-.6.18-1.21.34-1.82.48-.29.07-.57.13-.86.19-.05.01-.1.02-.13.03-.18.03-.35.06-.53.09-1.44.24-2.91.38-4.37.42-.13,0-.25,0-.38,0-.06,0-.09,0-.11,0-.04,0-.08,0-.12,0-.38,0-.75-.02-1.13-.03-.71-.03-1.42-.09-2.12-.17-1.71-.2-3.34-.5-4.97-.88.28-.06.57-.12.85-.19,3.76-.84,7.39-2.09,10.7-4.04.6-.36,1.4-1.27,1.04-2.02-.36-.76-1.57-.73-2.25-.52-3.11.97-6.18,2.07-9.35,2.82-3.06.73-6.19.96-9.46,1.35-1,.12-2.05.59-2.69,1.37-.4.5-.86,1.43-.16,1.93,2.61,1.87,5.08,3.98,7.61,5.96,1.22.96,2.45,1.91,3.68,2.86,1.3,1.01,2.64,2.2,4.17,2.85.83.35,3.39-.66,2.72-1.82-.76-1.33-2.2-2.41-3.33-3.43-.97-.88-1.95-1.76-2.93-2.64,2.98.57,6.1.6,9.11.31,5.98-.58,11.82-2.64,16.79-5.97,4.91-3.29,8.82-7.83,11.17-13.2,2.24-5.13,2.94-10.94,2.19-16.46-.84-6.18-3.39-12.5-8.17-16.74Z"/>
      </g>
      <text class="cls-2" transform="translate(179.64 104.85)"><tspan class="cls-4" x="0" y="0">U</tspan><tspan class="cls-3" x="66.9" y="0">niLex</tspan></text>
    </g>
  </g>
</svg>